<svg width="17" height="25" viewBox="0 0 17 25" fill="none" xmlns="http://www.w3.org/2000/svg">
<path fill-rule="evenodd" clip-rule="evenodd" d="M17 8.5C17 9.80922 16.704 11.0493 16.1753 12.157H16.2028L16.0456 12.4172C15.8783 12.7388 15.691 13.0483 15.4854 13.3442L8.49918 24.907L1.50174 13.3257C1.30543 13.0416 1.12598 12.7449 0.964837 12.4371L0.795583 12.157H0.824707C0.295992 11.0493 0 9.80922 0 8.5C0 3.80558 3.80558 0 8.5 0C13.1944 0 17 3.80558 17 8.5ZM8.6 14C11.6376 14 14.1 11.5376 14.1 8.5C14.1 5.46243 11.6376 3 8.6 3C5.56243 3 3.1 5.46243 3.1 8.5C3.1 11.5376 5.56243 14 8.6 14Z" fill="#FFFF00"/>
</svg>
