<svg width="154" height="18" viewBox="0 0 154 18" fill="none" xmlns="http://www.w3.org/2000/svg">
<path d="M5.6017 0.0319824H0V17.9916H5.6017V4.70148H9.33619V17.9916H14.9379V0.0319824H5.6017Z" fill="#6016C4"/>
<path d="M111.64 0.0319824H107.575V4.6748H111.64V17.889H117.268V4.6748H121.33V0.0319824H111.64Z" fill="#6016C4"/>
<path d="M104.524 2.81768V0.0319824H100.142L96.4311 6.46558V0.0319824H90.809V17.889H96.4311V9.24618L100.974 17.889H105.21V14.5931L100.897 7.92476L104.524 2.81768Z" fill="#6016C4"/>
<path d="M73.1437 2.81768V0.0319824H68.7609L65.0473 6.46558V0.0319824H59.4249V6.50898L55.6877 0.0319824H51.3048V2.81768L54.9327 7.92476L50.6163 14.5931V17.889H54.8546L59.4249 9.19798V17.889H65.0473V9.24618L69.591 17.889H73.8292V14.5931L69.5132 7.92476L73.1437 2.81768Z" fill="#6016C4"/>
<path d="M81.4277 10.7946H85.7669V6.15181H81.4277V4.6748H86.7162V0.0319824H75.7642V17.889H87.1556V13.2461H81.4277V10.7946Z" fill="#6016C4"/>
<path d="M42.6103 0.0319824C42.6103 0.0319824 42.6345 0.178208 42.6667 0.429666L42.6103 0.0319824H38.8489C35.9258 0.645201 34.467 1.92803 33.2069 4.59118V13.3221C34.2169 15.7211 36.0923 17.4143 38.8489 17.9916H42.6103L42.6962 16.9704C42.6559 17.5887 42.6103 17.9916 42.6103 17.9916C45.0605 17.3399 47.14 15.4644 48.2523 13.1656V4.70148C47.2314 2.264 45.7456 0.950512 42.6103 0.0319824ZM38.8489 13.3221C39.2144 9.98674 39.2735 8.03424 38.8489 4.70148H42.6103C41.8852 8.18053 42.0971 9.81473 42.6103 13.3221H38.8489Z" fill="#6016C4"/>
<path d="M132.237 0.0319824C132.237 0.0319824 132.261 0.177372 132.294 0.427393L132.237 0.0319824H128.476C125.553 0.641697 124.094 1.91719 122.834 4.56513V13.2461C123.844 15.6314 125.719 17.315 128.476 17.889H132.237L132.323 16.8736C132.283 17.4884 132.237 17.889 132.237 17.889C134.687 17.241 136.767 15.3762 137.879 13.0906V4.6748C136.861 2.25125 135.372 0.945263 132.237 0.0319824ZM128.476 13.2461C128.841 9.92985 128.9 7.98851 128.476 4.6748H132.237C131.512 8.13397 131.724 9.75883 132.237 13.2461H128.476Z" fill="#6016C4"/>
<path d="M25.9761 0.0319824H17.41V17.9916H23.0297V14.6332H25.9761L26.0135 14.1868C25.9921 14.469 25.9761 14.6332 25.9761 14.6332C28.4166 13.9815 30.4879 12.106 31.5957 9.80719V4.70408C30.5786 2.264 29.099 0.950512 25.9761 0.0319824ZM23.0297 9.96367V4.70148H25.9761C25.7593 6.38199 25.7031 7.77512 25.9761 9.96367H23.0297Z" fill="#6016C4"/>
<path d="M148.381 0.0319824H139.814V17.889H145.434V14.5497H148.381L148.418 14.1059C148.397 14.3865 148.381 14.5497 148.381 14.5497C150.821 13.9018 152.892 12.037 154 9.75132V4.67738C152.983 2.25125 151.503 0.945263 148.381 0.0319824ZM145.434 9.90692V4.6748H148.381C148.164 6.3457 148.107 7.73087 148.381 9.90692H145.434Z" fill="#6016C4"/>
</svg>
