<svg width="22" height="22" viewBox="0 0 22 22" fill="none" xmlns="http://www.w3.org/2000/svg">
<path d="M7.94922 10.725C8.65667 12.1859 9.83802 13.3642 11.3008 14.0679C11.4087 14.119 11.528 14.1411 11.6471 14.1321C11.7661 14.1231 11.8807 14.0832 11.9797 14.0164L14.1281 12.5812C14.223 12.5168 14.3327 12.4776 14.4469 12.467C14.5612 12.4565 14.6762 12.4751 14.7813 12.5211L18.8031 14.2484C18.9406 14.3056 19.0554 14.4064 19.13 14.5353C19.2045 14.6642 19.2346 14.814 19.2156 14.9617C19.0882 15.9566 18.6025 16.871 17.8496 17.5338C17.0967 18.1965 16.1281 18.5622 15.125 18.5625C12.0253 18.5625 9.05252 17.3311 6.86069 15.1393C4.66886 12.9474 3.4375 9.97468 3.4375 6.87497C3.43773 5.8719 3.80343 4.90329 4.46619 4.15037C5.12895 3.39745 6.04335 2.91182 7.03828 2.78434C7.18596 2.76537 7.33577 2.79547 7.46466 2.87001C7.59354 2.94455 7.69435 3.05939 7.75156 3.19684L9.47891 7.22731C9.52383 7.33073 9.54262 7.44362 9.53363 7.55602C9.52463 7.66841 9.48813 7.77688 9.42734 7.87184L7.99219 10.0547C7.92829 10.1534 7.89079 10.2668 7.88327 10.3842C7.87575 10.5016 7.89845 10.6189 7.94922 10.725V10.725Z" stroke="#6016C4" stroke-width="2" stroke-linecap="round" stroke-linejoin="round"/>
</svg>
