<svg width="251" height="30" viewBox="0 0 251 30" fill="none" xmlns="http://www.w3.org/2000/svg">
<path d="M9.10012 0H0V29.1759H9.10012V7.58573H15.1669V29.1759H24.267V0H9.10012Z" fill="#FFFF00"/>
<path d="M181.363 0H174.758V7.54238H181.363V29.0092H190.505V7.54238H197.105V0H181.363Z" fill="#FFFF00"/>
<path d="M169.803 4.52545V0H162.683L156.655 10.4516V0H147.521V29.0092H156.655V14.9687L164.035 29.0092H170.916V23.6549L163.909 12.822L169.803 4.52545Z" fill="#FFFF00"/>
<path d="M118.824 4.52545V0H111.704L105.671 10.4516V0H96.5375V10.5221L90.4662 0H83.3462V4.52545L89.2398 12.822L82.2277 23.6549V29.0092H89.1129L96.5374 14.8904V29.0092H105.671V14.9687L113.052 29.0092H119.938V23.6549L112.926 12.822L118.824 4.52545Z" fill="#FFFF00"/>
<path d="M132.282 17.4842H139.331V9.94183H132.282V7.54238H140.873V0H123.081V29.0092H141.587V21.4668H132.282V17.4842Z" fill="#FFFF00"/>
<path d="M69.2215 0C69.2215 0 69.2607 0.237547 69.3131 0.646047L69.2215 0H63.1111C58.3623 0.99619 55.9925 3.08017 53.9454 7.40654V21.5902C55.5862 25.4873 58.6329 28.2381 63.1111 29.1759H69.2215L69.3611 27.517C69.2957 28.5214 69.2215 29.1759 69.2215 29.1759C73.2019 28.1172 76.5801 25.0704 78.387 21.3359V7.58573C76.7285 3.62598 74.3149 1.49218 69.2215 0ZM63.1111 21.5902C63.7047 16.1718 63.8007 12.9999 63.1111 7.58573H69.2215C68.0435 13.2375 68.3879 15.8923 69.2215 21.5902H63.1111Z" fill="#FFFF00"/>
<path d="M214.823 0C214.823 0 214.862 0.236189 214.914 0.642355L214.823 0H208.712C203.964 0.990498 201.593 3.06257 199.547 7.36422V21.4668C201.188 25.3417 204.234 28.0767 208.712 29.0092H214.823L214.962 27.3597C214.897 28.3584 214.823 29.0092 214.823 29.0092C218.803 27.9565 222.182 24.9271 223.988 21.214V7.54238C222.334 3.60526 219.916 1.48365 214.823 0ZM208.712 21.4668C209.306 16.0794 209.402 12.9256 208.712 7.54238H214.823C213.645 13.1619 213.989 15.8015 214.823 21.4668H208.712Z" fill="#FFFF00"/>
<path d="M42.1987 0H28.283V29.1759H37.4123V23.72H42.1987L42.2596 22.9948C42.2248 23.4534 42.1987 23.72 42.1987 23.72C46.1634 22.6614 49.5283 19.6145 51.3279 15.8801V7.58995C49.6757 3.62598 47.272 1.49218 42.1987 0ZM37.4123 16.1343V7.58573H42.1987C41.8466 10.3158 41.7552 12.5789 42.1987 16.1343H37.4123Z" fill="#FFFF00"/>
<path d="M241.048 0H227.132V29.0092H236.262V23.5845H241.048L241.109 22.8634C241.074 23.3193 241.048 23.5845 241.048 23.5845C245.013 22.5319 248.377 19.5025 250.177 15.7893V7.54658C248.525 3.60526 246.121 1.48365 241.048 0ZM236.262 16.0421V7.54238H241.048C240.696 10.2568 240.604 12.5071 241.048 16.0421H236.262Z" fill="#FFFF00"/>
</svg>
