<svg width="982" height="115" viewBox="0 0 982 115" fill="none" xmlns="http://www.w3.org/2000/svg">
<path d="M35.7199 0H0V114.522H35.7199V29.7757H59.5334V114.522H95.2533V0H35.7199Z" fill="#FFFF00"/>
<path d="M711.889 0H685.964V29.6055H711.889V113.867H747.773V29.6055H773.68V0H711.889Z" fill="#FFFF00"/>
<path d="M666.513 17.7634V0H638.566L614.905 41.0246V0H579.055V113.867H614.905V58.7555L643.874 113.867H670.882V92.8506L643.38 50.3293L666.513 17.7634Z" fill="#FFFF00"/>
<path d="M466.411 17.7634V0H438.463L414.783 41.0246V0H378.931V41.3014L355.1 0H327.152V17.7634L350.286 50.3293L322.762 92.8506V113.867H349.788L378.93 58.4482V113.867H414.782V58.7555L443.756 113.867H470.781V92.8506L443.26 50.3293L466.411 17.7634Z" fill="#FFFF00"/>
<path d="M519.235 68.6293H546.904V39.0238H519.235V29.6055H552.957V0H483.12V113.867H555.759V84.2618H519.235V68.6293Z" fill="#FFFF00"/>
<path d="M271.71 0C271.71 0 271.864 0.932424 272.07 2.53588L271.71 0H247.725C229.085 3.91027 219.783 12.0904 211.748 29.0723V84.7461C218.189 100.043 230.147 110.841 247.725 114.522H271.71L272.258 108.01C272.001 111.953 271.71 114.522 271.71 114.522C287.334 110.366 300.594 98.4068 307.687 83.7482V29.7757C301.177 14.2328 291.703 5.85712 271.71 0ZM247.725 84.7461C250.055 63.4777 250.432 51.0274 247.725 29.7757H271.71C267.086 51.9602 268.438 62.3809 271.71 84.7461H247.725Z" fill="#FFFF00"/>
<path d="M843.226 0C843.226 0 843.381 0.927095 843.586 2.52139L843.226 0H819.242C800.602 3.88792 791.298 12.0213 783.265 28.9062V84.2618C789.705 99.4716 801.665 110.207 819.242 113.867H843.226L843.774 107.393C843.517 111.313 843.226 113.867 843.226 113.867C858.85 109.736 872.111 97.8444 879.203 83.2696V29.6055C872.71 14.1514 863.219 5.82365 843.226 0ZM819.242 84.2618C821.572 63.115 821.947 50.7358 819.242 29.6055H843.226C838.602 51.6633 839.953 62.0244 843.226 84.2618H819.242Z" fill="#FFFF00"/>
<path d="M165.639 0H111.017V114.522H146.851V93.1063H165.639L165.878 90.2598C165.741 92.0596 165.639 93.1063 165.639 93.1063C181.201 88.9508 194.409 76.9914 201.473 62.3328V29.7922C194.988 14.2328 185.553 5.85712 165.639 0ZM146.851 63.3307V29.7757H165.639C164.257 40.4916 163.898 49.3751 165.639 63.3307H146.851Z" fill="#FFFF00"/>
<path d="M946.167 0H891.543V113.867H927.378V92.5743H946.167L946.406 89.744C946.268 91.5335 946.167 92.5743 946.167 92.5743C961.728 88.4425 974.935 76.5514 982 61.9766V29.622C975.514 14.1514 966.078 5.82365 946.167 0ZM927.378 62.9688V29.6055H946.167C944.783 40.2602 944.424 49.0929 946.167 62.9688H927.378Z" fill="#FFFF00"/>
</svg>
